<svg width="370" height="571" viewBox="0 0 370 571" fill="none" xmlns="http://www.w3.org/2000/svg">
<path d="M117.9 0H0V570.4H117.9V0Z" fill="white"/>
<path d="M312.1 114C343.58 114 369.1 88.4802 369.1 57C369.1 25.5198 343.58 0 312.1 0C280.62 0 255.1 25.5198 255.1 57C255.1 88.4802 280.62 114 312.1 114Z" fill="white"/>
<path d="M312.1 342.2C343.58 342.2 369.1 316.68 369.1 285.2C369.1 253.72 343.58 228.2 312.1 228.2C280.62 228.2 255.1 253.72 255.1 285.2C255.1 316.68 280.62 342.2 312.1 342.2Z" fill="white"/>
<path d="M312.1 570.4C343.58 570.4 369.1 544.88 369.1 513.4C369.1 481.92 343.58 456.4 312.1 456.4C280.62 456.4 255.1 481.92 255.1 513.4C255.1 544.88 280.62 570.4 312.1 570.4Z" fill="white"/>
</svg>
